<svg viewBox="0 0 20 20" xmlns="http://www.w3.org/2000/svg"><path d="M6.754518804556911,11.847354657615703 L4.1732184816891005,9.379563425369426 l2.581300322867811,-2.467791232246277 c0.19590399816989268,-0.22579400379622255 0.19590399816989268,-0.5921038368190522 0,-0.8178978406152747 c-0.1959283795013388,-0.22579400379622255 -0.5131782642787676,-0.22579400379622255 -0.7091066437801062,0 L3.0663060340334543,8.941525364378641 c-0.10442524258390172,0.12053686540755955 -0.14867735915868133,0.2804838946544239 -0.14170429836507975,0.4380668906644026 c-0.00697306079360166,0.15758299600997855 0.03727905578117809,0.3175011955832225 0.14170429836507975,0.4380380609907819 l2.9791061267433507,2.8476221821971492 c0.1959283795013388,0.22576517412260194 0.5131782642787676,0.22576517412260194 0.7091066437801062,0 C6.950422802726804,12.43945849443476 6.950422802726804,12.07314866141192 6.754518804556911,11.847354657615703 zM13.845000090403268,1.645772839265362 c-0.23769360026861006,-0.15934160610083273 -0.5419969980481285,-0.06469378760453569 -0.6792395127585612,0.21109087024973702 l-6.215801020215379,14.162865462836082 c-0.13724251471043256,0.2757558281806522 -0.08055591909811141,0.6973321455340946 0.18200663924558153,0.7873383865774812 c0.3212484231345992,0.1099275455151936 0.5420213793795747,0.06466495793091515 0.6792638940900072,-0.21109087024973702 l6.2157766388839315,-14.162865462836082 C14.164736870988204,2.1567211448425425 14.083181317300799,1.8045090222201665 13.845000090403268,1.645772839265362 zM17.702273013174395,8.941525364378641 l-2.978594118782982,-2.84819877566956 c-0.1959283795013388,-0.22579400379622255 -0.5131782642787676,-0.22579400379622255 -0.7091066437801062,0 c-0.1959283795013388,0.22579400379622255 -0.1959283795013388,0.5921038368190522 0,0.8178978406152747 l2.581300322867811,2.467791232246277 l-2.581300322867811,2.467791232246277 c-0.1959283795013388,0.22579400379622255 -0.1959283795013388,0.5921038368190522 0,0.8178978406152747 c0.19590399816989268,0.22576517412260194 0.5131782642787676,0.22576517412260194 0.7091066437801062,0 l2.9791061267433507,-2.8476221821971492 c0.10442524258390172,-0.12053686540755955 0.14870174049012763,-0.2804838946544239 0.14170429836507975,-0.4380380609907819 C17.851462380293448,9.221980429359448 17.806698255758295,9.062062229786207 17.702273013174395,8.941525364378641 z"/></svg>
